<svg width="595" height="377" viewBox="0 0 595 377" fill="none" xmlns="http://www.w3.org/2000/svg">
<path d="M0 51.7654C0 23.3671 23.0213 0.345703 51.4196 0.345703H76.0803C104.479 0.345703 127.5 23.3671 127.5 51.7653V190.652C127.5 219.05 150.521 242.071 178.92 242.071H182.33C210.729 242.071 233.75 219.05 233.75 190.652V51.7654C233.75 23.3671 256.771 0.345703 285.17 0.345703H309.83C338.229 0.345703 361.25 23.3671 361.25 51.7653V190.652C361.25 219.05 384.271 242.071 412.67 242.071H416.08C444.478 242.071 467.5 219.05 467.5 190.652V51.7654C467.5 23.3671 490.521 0.345703 518.919 0.345703H543.58C571.978 0.345703 595 23.3671 595 51.7654V196.843C595 225.241 571.978 248.262 543.58 248.262H529.544C501.146 248.262 478.125 271.284 478.125 299.682V325.235C478.125 353.633 455.103 376.655 426.705 376.655H402.044C373.646 376.655 350.625 353.633 350.625 325.235V299.682C350.625 271.284 327.604 248.262 299.205 248.262H295.926C267.528 248.262 244.506 271.284 244.506 299.682V325.235C244.506 353.633 221.485 376.655 193.087 376.655H168.426C140.028 376.655 117.006 353.633 117.006 325.235V299.682C117.006 271.284 93.985 248.262 65.5867 248.262H51.4197C23.0214 248.262 0 225.241 0 196.843V51.7654Z" fill="#D3D7FB"/>
</svg>
